<?xml version="1.0" encoding="UTF-8"?>
<!DOCTYPE svg PUBLIC "-//W3C//DTD SVG 1.1//EN" "http://www.w3.org/Graphics/SVG/1.1/DTD/svg11.dtd">
<!-- Creator: CorelDRAW 2017 -->
<svg xmlns="http://www.w3.org/2000/svg" xml:space="preserve" width="44.0266mm" height="42.3332mm" version="1.1" shape-rendering="geometricPrecision" text-rendering="geometricPrecision" image-rendering="optimizeQuality" fill-rule="evenodd" clip-rule="evenodd"
viewBox="0 0 4403 4233"
 xmlns:xlink="http://www.w3.org/1999/xlink">
 <g id="Camada_x0020_1">
  <metadata id="CorelCorpID_0Corel-Layer"/>
  <g id="_2073660130624">
   <circle fill="#F8F7F9" cx="1526" cy="1489" r="1444"/>
   <g>
    <path fill="#91CDFF" d="M2866 1489c0,740 -600,1340 -1340,1340 -740,0 -1340,-600 -1340,-1340 0,-740 600,-1340 1340,-1340 740,0 1340,600 1340,1340z"/>
    <path fill="#ABDCFF" d="M2254 1824l570 0c-14,54 -31,106 -51,157l-153 0c-43,0 -79,35 -79,79l0 0c0,43 -35,79 -79,79l-838 0c-45,0 -81,-37 -78,-82 2,-42 38,-75 81,-75l469 0c43,0 79,-35 79,-79 0,-43 35,-79 79,-79zm-1049 157l-155 0c-43,0 -79,-35 -79,-79 0,-43 -35,-79 -79,-79l-574 0c-34,0 -65,22 -76,52 9,31 20,62 32,92 12,8 27,13 42,13l209 0c43,0 79,35 79,79l0 0c0,43 35,79 79,79l523 0c45,0 81,-37 78,-82 -2,-42 -38,-75 -81,-75zm1658 -597l-179 0c-43,0 -79,35 -79,79 0,43 35,79 79,79l182 0c1,-17 1,-35 1,-52 0,-35 -1,-70 -4,-105zm-687 -215c0,43 35,79 79,79l591 0c-10,-54 -23,-106 -38,-157l-552 0c-43,0 -79,35 -79,79zm-1858 393l733 0c43,0 79,-35 79,-79 0,-43 -35,-79 -79,-79l-733 0c-43,0 -79,35 -79,79 0,43 35,79 79,79zm1518 -1099l471 0c21,0 41,-9 55,-22 -64,-51 -132,-96 -205,-135l-321 0c-43,0 -79,35 -79,79 0,43 35,79 79,79zm288 236c0,43 35,79 79,79l460 0c-35,-55 -73,-108 -115,-157l-345 0c-43,0 -79,35 -79,79zm-1103 183c45,0 81,-37 78,-82 -2,-42 -38,-75 -81,-75l-207 0c-43,0 -79,-35 -79,-79 0,-43 -35,-79 -79,-79l-101 0c-83,88 -155,187 -212,295 14,12 31,19 51,19l628 0zm344 -628l-358 0c-98,41 -191,94 -275,157 2,0 3,0 5,0l628 0c43,0 79,-35 79,-79 0,-43 -35,-79 -79,-79z"/>
    <polygon fill="#965028" points="1599,2556 1390,2556 1390,1143 1599,1143 "/>
    <path fill="#B9783D" d="M1494 2556l0 -524c0,-29 23,-52 52,-52l52 0 0 576 -105 0z"/>
    <path fill="#6EA550" d="M2515 2393c-245,268 -598,436 -989,436 -392,0 -744,-168 -989,-436l1373 0 -65 -150c-2,-5 4,-9 8,-6l198 141 115 -82c4,-3 10,1 8,6l-39 91 380 0 0 0z"/>
    <path fill="#82CD64" d="M780 2602l231 0 -39 -91c-2,-5 4,-9 8,-6l115 82 198 -141c4,-3 10,1 8,6l-65 150 1036 0c-213,143 -470,227 -746,227 -276,0 -533,-84 -746,-227z"/>
    <path fill="#FFFAD2" d="M2521 1876l-1989 0c-29,0 -52,-23 -52,-52l0 -1204c0,-29 23,-52 52,-52l1989 0c29,0 52,23 52,52l0 1204c0,29 -23,52 -52,52z"/>
    <path fill="#FFF5AF" d="M657 1876l-126 0c-29,0 -52,-23 -52,-52l0 -1204c0,-29 23,-52 52,-52l126 0c-29,0 -52,23 -52,52l0 1204c0,29 23,52 52,52z"/>
    <path fill="#FFE67D" d="M2437 855l0 52c0,14 -12,26 -26,26l-576 0c-14,0 -26,-12 -26,-26l0 -52c0,-14 12,-26 26,-26l576 0c14,0 26,12 26,26zm-602 288l314 0c14,0 26,-12 26,-26l0 -52c0,-14 -12,-26 -26,-26l-314 0c-14,0 -26,12 -26,26l0 52c0,14 12,26 26,26zm576 157l-576 0c-14,0 -26,12 -26,26l0 52c0,14 12,26 26,26l576 0c14,0 26,-12 26,-26l0 -52c0,-14 -12,-26 -26,-26zm-262 209l-314 0c-14,0 -26,12 -26,26l0 52c0,14 12,26 26,26l314 0c14,0 26,-12 26,-26l0 -52c0,-14 -12,-26 -26,-26z"/>
    <path fill="#FF5A5F" d="M1550 1174l48 0 22 -76 -165 -101 0 -137c6,0 10,-5 10,-10l0 -20c0,-6 -5,-10 -10,-10l-100 0c-6,0 -10,4 -10,10l0 20c0,6 5,10 10,10l0 75 -189 -115 -454 278 14 76 55 0 0 393 -30 0 0 55 30 0 769 0 30 0 0 -55 -30 0 0 -393zm-407 283l-149 0 0 -102 149 0 0 102zm0 -138l-149 0 0 -102 149 0 0 102zm194 138l-149 0 0 -102 149 0 0 102zm0 -138l-149 0 0 -102 149 0 0 102z"/>
    <path fill="#D74646" d="M1550 1567l30 0 0 55 -30 0 -769 0 -30 0 0 -55 30 0 0 0 769 0 0 0zm-147 -601l0 -146 -49 0c-6,0 -10,4 -10,10l0 20c0,6 5,10 10,10l0 75 -189 -115 -454 278 14 76 19 0 421 -257 189 115 100 61 132 81 12 0 22 -76 -216 -132zm-20 208l0 324 -433 0 0 -324 433 0zm-240 181l-149 0 0 102 149 0 0 -102zm0 -138l-149 0 0 102 149 0 0 -102zm194 138l-149 0 0 102 149 0 0 -102zm0 -138l-149 0 0 102 149 0 0 -102z"/>
   </g>
   <g>
    <circle fill="#F8F7F9" cx="3098" cy="2966" r="1223"/>
    <circle fill="#57A4FF" cx="3098" cy="2966" r="1121"/>
    <path fill="#2488FF" d="M4219 2966c0,-8 0,-15 0,-23l-294 -294 -98 -98 -280 -280 -10 -10 -26 -26 0 0 0 0 -207 207 26 26 -52 52 -180 43 -25 7c-2,0 -3,1 -5,2l-83 -20 -94 -94 -207 -207 -26 26 0 0 -362 362 -26 26 300 300 27 112c2,5 4,11 6,16l-59 59c-36,36 -36,94 0,129l0 0c0,0 0,0 0,0l-1 1 258 258 0 0 0 0 129 129 0 0 0 0 394 394c510,-105 893,-557 893,-1098z"/>
    <rect fill="white" transform="matrix(-0.137045 -0.137045 0.137045 -0.137045 3381.81 3140.19)" width="2641" height="3772"/>
    <rect fill="#E1E3FA" transform="matrix(-0.137045 -0.137045 0.137045 -0.137045 3381.79 3140.18)" width="1320" height="3772"/>
    <rect fill="#3E3D42" transform="matrix(-0.137045 -0.137045 0.137045 -0.137045 3717.83 2855.81)" width="3018" height="1509"/>
    <rect fill="#2D2D30" transform="matrix(-0.137045 -0.137045 0.137045 -0.137045 3717.87 2855.84)" width="1509" height="1509"/>
    <path fill="#FFC477" d="M3101 3498l-39 -39 -65 -65 -155 -155 -142 -142 -39 -39c-36,-36 -36,-94 0,-129l0 0 255 -255c67,-73 106,-90 182,-112l180 -43 207 207 26 26 129 129 -43 180c-23,69 -61,131 -112,182l-255 255 0 0c-36,36 -94,36 -129,0z"/>
    <rect fill="white" transform="matrix(0.137045 -0.137045 0.137045 0.137045 2297.26 2638.79)" width="2641" height="3772"/>
    <rect fill="#E1E3FA" transform="matrix(0.137045 -0.137045 0.137045 0.137045 2297.22 2638.78)" width="1320" height="3772"/>
    <rect fill="#3E3D42" transform="matrix(0.137045 -0.137045 0.137045 0.137045 2271.43 2664.62)" width="3018" height="1509"/>
    <rect fill="#2D2D30" transform="matrix(0.137045 -0.137045 0.137045 0.137045 2271.38 2664.67)" width="1509" height="1509"/>
    <path fill="#FFA733" d="M3638 3152l-321 -321c24,-36 20,-84 -12,-115l0 0 -26 -26c-51,-51 -113,-90 -182,-112l-180 -43 -207 207 -26 26 -129 129 43 180c23,69 61,131 112,182l26 26 65 65 1 -1 320 320c36,36 94,36 129,0l0 0c36,-36 36,-94 0,-129 36,36 94,36 129,0l0 0c35,-35 36,-91 2,-127 36,33 91,32 126,-3l0 0c36,-36 36,-94 0,-129 36,36 94,36 129,0l0 0c36,-36 36,-94 0,-129z"/>
    <path fill="#FFDAAA" d="M3046 2804l0 0 6 -6 0 0 81 41c71,40 165,22 223,-36l103 -103 0 0 -181 -181 0 0 -180 43 -25 7c-47,13 -90,39 -125,73l-32 32 -116 116c-36,36 -36,94 0,129l0 0c36,36 94,36 129,0l116 -116z"/>
    <path fill="#FFDAAA" d="M2775 3052l0 0c-36,-36 -94,-36 -129,0l-101 101c-36,36 -36,94 0,129l0 0c36,36 94,36 129,0l101 -101c36,-36 36,-94 0,-129z"/>
    <path fill="#FFDAAA" d="M2904 3181l0 0c-36,-36 -94,-36 -129,0l-101 101c-36,36 -36,94 0,129l0 0c36,36 94,36 129,0l101 -101c36,-36 36,-94 0,-129z"/>
    <path fill="#FFDAAA" d="M3032 3311l0 0c-36,-36 -94,-36 -129,0l-101 101c-36,36 -36,94 0,129l0 0c36,36 94,36 129,0l101 -101c36,-36 36,-94 0,-129z"/>
    <path fill="#FFDAAA" d="M3162 3440l0 0c-36,-36 -94,-36 -129,0l-101 101c-36,36 -36,94 0,129l0 0c36,36 94,36 129,0l101 -101c36,-36 36,-94 0,-129z"/>
   </g>
  </g>
 </g>
</svg>
