<?xml version="1.0" encoding="UTF-8"?>
<!DOCTYPE svg PUBLIC "-//W3C//DTD SVG 1.1//EN" "http://www.w3.org/Graphics/SVG/1.1/DTD/svg11.dtd">
<!-- Creator: CorelDRAW 2017 -->
<svg xmlns="http://www.w3.org/2000/svg" xml:space="preserve" width="24.1298mm" height="24.1298mm" version="1.1" shape-rendering="geometricPrecision" text-rendering="geometricPrecision" image-rendering="optimizeQuality" fill-rule="evenodd" clip-rule="evenodd"
viewBox="0 0 2413 2413"
 xmlns:xlink="http://www.w3.org/1999/xlink">
 <g id="Camada_x0020_1">
  <metadata id="CorelCorpID_0Corel-Layer"/>
  <g id="_2073660119648">
   <circle fill="#73D658" cx="1206" cy="1206" r="1163"/>
   <path fill="#393D47" d="M1733 2199l-454 -791 144 0c53,0 96,-43 96,-96 0,-53 -43,-96 -96,-96l-434 0c-53,0 -96,43 -96,96 0,53 43,96 96,96l144 0 -452 791c-11,20 -5,45 15,56 6,3 14,6 20,6 14,0 28,-8 36,-20l413 -721 0 701c0,23 19,42 42,42 23,0 42,-19 42,-42l0 -701 413 721c11,20 37,26 56,15 19,-12 25,-37 14,-57z"/>
   <rect fill="#F1F3F7" transform="matrix(-0.185184 0.078316 -0.078316 -0.185184 1735.49 811.4)" width="4836" height="2117"/>
   <rect fill="#646B79" transform="matrix(-0.185184 0.078316 -0.078316 -0.185184 2298.69 617.02)" width="2957" height="2510"/>
   <rect fill="#F0582F" transform="matrix(-0.185184 0.078316 -0.078316 -0.185184 1844.39 809.079)" width="500" height="2510"/>
   <rect fill="#646B79" transform="matrix(-0.185184 0.078316 -0.078316 -0.185184 922.445 1156.64)" width="447" height="2117"/>
   <rect fill="#F1F3F7" transform="matrix(-0.185184 0.078316 -0.078316 -0.185184 811.128 1122.24)" width="3172" height="1386"/>
   <rect fill="#0090FF" transform="matrix(-0.185184 0.078316 -0.078316 -0.185184 311.155 1334.65)" width="470" height="1386"/>
   <circle fill="#F0582F" cx="1206" cy="1151" r="197"/>
  </g>
 </g>
</svg>
