<?xml version="1.0" encoding="UTF-8"?>
<!DOCTYPE svg PUBLIC "-//W3C//DTD SVG 1.1//EN" "http://www.w3.org/Graphics/SVG/1.1/DTD/svg11.dtd">
<!-- Creator: CorelDRAW 2017 -->
<svg xmlns="http://www.w3.org/2000/svg" xml:space="preserve" width="42.3332mm" height="30.0566mm" version="1.1" shape-rendering="geometricPrecision" text-rendering="geometricPrecision" image-rendering="optimizeQuality" fill-rule="evenodd" clip-rule="evenodd"
viewBox="0 0 4233 3006"
 xmlns:xlink="http://www.w3.org/1999/xlink">
 <g id="Camada_x0020_1">
  <metadata id="CorelCorpID_0Corel-Layer"/>
  <g id="_2073560791936">
   <path fill="#F8F7F9" d="M4137 1197l-3514 1699c-17,8 -37,-2 -40,-20l-110 -570c-1,-5 -3,-9 -6,-13l-378 -440c-12,-14 -8,-36 9,-44l3514 -1699c17,-8 37,2 40,20l110 570c1,5 3,9 6,13l378 440c12,14 8,36 -9,44z"/>
   <path fill="#F8F7F9" d="M3768 713c-3,-4 -5,-8 -6,-13l-110 -570c-4,-18 -23,-28 -40,-20l-226 109 119 613 407 474 226 -109c17,-8 21,-30 9,-44l-378 -440z"/>
   <path fill="#F8F7F9" d="M2754 234l0 0c46,83 132,136 226,142l0 0c140,8 253,120 261,260l0 0c6,95 59,180 142,226l0 0c123,68 176,218 122,348l0 0c-36,88 -25,188 30,265l0 0c81,115 64,272 -41,366l0 0c-71,63 -104,159 -88,252l0 0c24,139 -61,273 -196,312l0 0c-91,27 -162,98 -189,189l0 0c-39,135 -173,220 -312,197l0 0c-94,-16 -189,18 -252,89l0 0c-94,105 -251,123 -366,42l0 0c-78,-55 -178,-66 -266,-30l0 0c-130,54 -280,2 -348,-121l0 0c-46,-83 -132,-136 -226,-142l0 0c-140,-8 -253,-120 -261,-260l0 0c-6,-95 -59,-180 -142,-226l0 0c-123,-68 -176,-218 -122,-348l0 0c36,-88 25,-188 -30,-265l0 0c-81,-115 -64,-272 41,-366l0 0c71,-63 104,-159 88,-252l0 0c-24,-139 61,-273 196,-312l0 0c91,-27 162,-98 189,-189l0 0c39,-135 173,-220 312,-197l0 0c94,16 189,-18 252,-89l0 0c94,-105 251,-123 366,-42l0 0c78,55 178,66 266,30l0 0c130,-54 280,-2 348,121z"/>
   <path fill="#F8F7F9" d="M3383 862l0 0c-83,-46 -137,-131 -142,-226l0 0c-8,-140 -121,-252 -261,-260l0 0c-95,-5 -180,-59 -226,-142l0 0c-68,-123 -218,-175 -348,-121l0 0c-88,36 -188,25 -266,-30l0 0c-115,-81 -272,-63 -366,42l0 0c-26,29 -57,51 -91,67 46,5 91,21 131,49 78,55 178,66 266,30 130,-54 280,-2 348,121l0 0c46,83 132,136 226,142l0 0c140,8 253,120 261,260l0 0c6,95 59,180 142,226l0 0c123,68 176,218 122,348l0 0c-36,88 -25,188 30,265l0 0c81,115 64,272 -41,366 -71,63 -104,159 -88,252l0 0c23,139 -61,273 -196,312l0 0c-91,27 -162,98 -189,189l0 0c-4,12 -8,24 -13,36 9,1 19,2 28,3l0 0c139,23 273,-61 312,-197l0 0c26,-91 97,-163 189,-189 135,-39 219,-174 196,-312l0 0c-16,-94 17,-189 88,-252l0 0c105,-94 122,-252 41,-366l0 0c-55,-77 -66,-178 -30,-265l0 0c53,-130 1,-280 -122,-348z"/>
   <circle fill="#F8F7F9" transform="matrix(0.308285 -0.149028 0.149028 0.308285 2116.66 1502.83)" r="3309"/>
   <path fill="#F8F7F9" d="M1623 483c-58,28 -112,60 -163,96 522,-153 1093,89 1337,595 244,506 79,1103 -364,1417 60,-17 119,-40 176,-68 563,-272 799,-950 527,-1513 -272,-563 -950,-799 -1513,-527z"/>
   <circle fill="#F8F7F9" transform="matrix(0.308285 -0.149028 0.149028 0.308285 2116.66 1502.83)" r="3309"/>
   <path fill="#F8F7F9" d="M1623 483c-58,28 -112,60 -163,96 522,-153 1093,89 1337,595 244,506 79,1103 -364,1417 60,-17 119,-40 176,-68 563,-272 799,-950 527,-1513 -272,-563 -950,-799 -1513,-527z"/>
   <path fill="#F8F7F9" d="M2337 769c-9,-6 -21,-6 -31,-2l-442 214 -442 214c-10,5 -17,14 -18,25l-49 431c-2,13 6,26 18,32l1051 515c19,9 41,-2 45,-22l250 -1144c3,-13 -3,-27 -14,-34l-368 -229z"/>
   <path fill="#F8F7F9" d="M1405 1219l-1 7 -49 424c-1,7 1,14 4,19l1358 -657c-2,-6 -7,-11 -13,-15l-362 -225 -6 -4c-9,-6 -21,-6 -31,-2l-442 214 -442 214c-10,5 -17,14 -18,25z"/>
   <polygon fill="#F8F7F9" points="1862,981 1807,1453 2038,1341 2266,1231 "/>
   <path fill="#F8F7F9" d="M2266 1231l451 -218 0 0c-1,-3 -3,-6 -5,-8 0,0 0,0 0,0 -1,-1 -2,-2 -3,-3 0,0 0,0 0,0 -1,-1 -3,-2 -4,-3l-75 -46 -240 -149 -54 -33c-1,-1 -2,-1 -4,-2 0,0 0,0 0,0 -1,0 -2,-1 -3,-1 0,0 0,0 0,0 -3,-1 -5,-1 -8,-1l0 0 -55 467z"/>
   <path fill="#F8F7F9" d="M1411 1204c-3,4 -5,10 -6,15l-17 151 -32 280c-1,7 1,14 4,19l451 -218 -400 -247z"/>
   <path fill="#F8F7F9" d="M1811 1451l-451 218c3,6 8,10 14,13l1051 515c8,4 16,4 23,2l-637 -748z"/>
   <path fill="#F8F7F9" d="M2719 1032c0,-2 1,-3 1,-5 0,-1 0,-3 0,-4 0,0 0,0 0,-1 0,-3 -1,-6 -2,-9 0,0 0,0 0,0l-453 219 192 963 0 0c3,-2 5,-5 8,-8 0,0 0,-1 1,-1 0,0 1,-1 1,-2 0,0 1,-1 1,-1 0,0 0,-1 1,-1 0,-1 1,-1 1,-2 0,0 0,-1 0,-1 0,-1 1,-2 1,-3l158 -725 91 -419z"/>
   <path fill="#F8F7F9" d="M2430 2199c-2,-1 -3,-1 -5,-2 2,1 3,1 5,2z"/>
   <path fill="#F8F7F9" d="M2435 2200c-1,0 -2,0 -4,-1 1,0 2,0 4,1z"/>
   <path fill="#F8F7F9" d="M2440 2200c-1,0 -2,0 -4,0 1,0 3,0 4,0z"/>
   <path fill="#F8F7F9" d="M2446 2199c0,0 -1,0 -1,0 0,0 1,0 1,0z"/>
   <polygon fill="#F8F7F9" points="2271,2122 2278,2125 "/>
   <path fill="#F8F7F9" d="M2447 2199l0 0c-1,0 -1,0 -2,0 1,0 1,0 2,0z"/>
   <path fill="#F8F7F9" d="M2445 2200c-1,0 -3,0 -4,1 1,0 3,0 4,-1z"/>
   <polygon fill="#F8F7F9" points="2278,2125 2424,2197 2425,2197 2424,2197 "/>
   <path fill="#F8F7F9" d="M2431 2200c-1,0 -1,0 -2,0 1,0 1,0 2,0z"/>
   <path fill="#F8F7F9" d="M2437 2200c-1,0 -1,0 -2,0 1,0 1,0 2,0z"/>
   <path fill="#10C4C4" d="M3967 1223l-3219 1556c-15,7 -34,-2 -37,-18l-101 -522c-1,-4 -3,-9 -6,-12l-346 -403c-11,-13 -7,-33 8,-40l3219 -1556c15,-7 34,2 37,18l101 522c1,4 3,9 6,12l346 403c11,13 7,33 -8,40z"/>
   <path fill="#04AFAF" d="M3629 779c-3,-3 -5,-8 -6,-12l-101 -522c-3,-17 -21,-26 -37,-18l-207 100 109 562 373 434 207 -100c15,-7 20,-27 8,-40l-346 -403z"/>
   <path fill="#FFB125" d="M2700 341l0 0c42,76 121,125 207,130l0 0c129,7 231,110 239,238l0 0c5,87 54,165 130,207l0 0c113,62 161,199 112,318l0 0c-33,80 -23,172 28,243l0 0c74,105 58,249 -37,335l0 0c-65,58 -95,145 -80,231l0 0c22,127 -56,250 -179,286l0 0c-83,24 -149,90 -173,173l0 0c-36,124 -158,201 -286,180l0 0c-86,-14 -173,16 -231,81l0 0c-86,96 -230,112 -335,38l0 0c-71,-50 -163,-60 -243,-27l0 0c-119,49 -256,2 -319,-111l0 0c-42,-76 -121,-125 -207,-130l0 0c-129,-7 -231,-110 -239,-238l0 0c-5,-87 -54,-165 -130,-207l0 0c-113,-62 -161,-199 -112,-318l0 0c33,-80 23,-172 -28,-243l0 0c-74,-105 -58,-249 37,-335l0 0c65,-58 95,-145 80,-231l0 0c-22,-127 56,-250 179,-286l0 0c83,-24 149,-90 173,-173l0 0c36,-124 158,-201 286,-180l0 0c86,14 173,-16 231,-81l0 0c86,-96 230,-112 335,-38l0 0c71,50 163,60 243,27l0 0c119,-49 256,-2 319,111z"/>
   <path fill="#FF901D" d="M3277 916l0 0c-76,-42 -125,-120 -130,-207l0 0c-8,-129 -110,-231 -239,-238l0 0c-87,-5 -165,-54 -207,-130l0 0c-63,-113 -200,-160 -319,-111l0 0c-80,33 -172,23 -243,-27l0 0c-105,-74 -249,-58 -335,38l0 0c-24,26 -52,47 -84,61 42,4 83,19 120,45 71,50 163,60 243,27 119,-49 256,-2 319,111l0 0c42,76 121,125 207,130l0 0c129,7 231,110 239,238l0 0c5,87 54,165 130,207l0 0c113,62 161,199 112,318l0 0c-33,80 -23,172 28,243l0 0c74,105 58,249 -37,335 -65,58 -95,145 -80,231l0 0c22,127 -56,250 -179,286l0 0c-83,24 -149,90 -173,173l0 0c-3,11 -7,22 -12,33 9,1 17,1 26,3l0 0c127,21 250,-56 286,-180l0 0c24,-84 89,-149 173,-173 124,-36 201,-159 179,-286l0 0c-15,-86 16,-173 80,-231l0 0c96,-86 112,-230 37,-335l0 0c-50,-71 -61,-163 -28,-243l0 0c49,-119 1,-256 -112,-318z"/>
   <circle fill="#E1EFFB" transform="matrix(0.282383 -0.136506 0.136506 0.282383 2116.66 1502.83)" r="3309"/>
   <path fill="#C3D8E5" d="M1665 568c-53,26 -103,55 -149,88 478,-140 1001,82 1225,545 224,463 73,1011 -334,1298 55,-16 109,-37 161,-62 516,-250 732,-870 483,-1386 -250,-516 -870,-732 -1386,-483z"/>
   <circle fill="#E1EFFB" transform="matrix(0.282383 -0.136506 0.136506 0.282383 2116.66 1502.83)" r="3309"/>
   <path fill="#C3D8E5" d="M1665 568c-53,26 -103,55 -149,88 478,-140 1001,82 1225,545 224,463 73,1011 -334,1298 55,-16 109,-37 161,-62 516,-250 732,-870 483,-1386 -250,-516 -870,-732 -1386,-483z"/>
   <path fill="#10C4C4" d="M2318 830c-8,-5 -19,-6 -28,-2l-405 196 -405 196c-9,4 -15,13 -16,23l-45 395c-1,12 5,24 16,30l963 472c17,8 37,-1 41,-20l229 -1048c3,-12 -3,-24 -13,-31l-337 -210z"/>
   <path fill="#21D8DE" d="M1465 1243l-1 7 -44 388c-1,6 1,12 4,18l1244 -601c-2,-6 -6,-10 -12,-14l-332 -206 -6 -4c-9,-5 -19,-6 -28,-1l-405 196 -405 196c-9,4 -15,13 -16,23z"/>
   <polygon fill="#25F2F2" points="1884,1025 1833,1457 2045,1355 2254,1254 "/>
   <path fill="#25F2F2" d="M2254 1254l413 -200 0 0c-1,-3 -3,-5 -5,-8 0,0 0,0 0,0 -1,-1 -2,-2 -3,-3 0,0 0,0 0,0 -1,-1 -2,-2 -4,-3l-68 -43 -220 -137 -49 -31c-1,-1 -2,-1 -3,-2 0,0 0,0 0,0 -1,0 -2,-1 -3,-1 0,0 0,0 0,0 -2,-1 -5,-1 -7,-1l0 0 -50 428z"/>
   <path fill="#25F2F2" d="M1470 1229c-3,4 -5,9 -5,14l-16 139 -29 256c-1,6 1,12 4,18l413 -200 -366 -226z"/>
   <path fill="#21D8DE" d="M1836 1456l-413 200c3,5 7,9 13,12l963 472c7,3 14,4 21,2l-583 -685z"/>
   <path fill="#21D8DE" d="M2669 1071c0,-1 1,-3 1,-4 0,-1 0,-3 0,-4 0,0 0,0 0,-1 0,-3 -1,-6 -2,-8 0,0 0,0 0,0l-415 201 176 882 0 0c3,-2 5,-4 7,-7 0,0 0,0 1,-1 0,0 1,-1 1,-1 0,0 1,-1 1,-1 0,0 0,-1 1,-1 0,-1 1,-1 1,-2 0,0 0,-1 0,-1 0,-1 1,-2 1,-3l145 -664 84 -384z"/>
   <path fill="#0BB2AD" d="M2403 2141c-2,0 -3,-1 -5,-2 2,1 3,1 5,2z"/>
   <path fill="#0BB2AD" d="M2408 2142c-1,0 -2,0 -3,-1 1,0 2,0 3,1z"/>
   <path fill="#0BB2AD" d="M2413 2142c-1,0 -2,0 -3,0 1,0 2,0 3,0z"/>
   <path fill="#0BB2AD" d="M2418 2141c0,0 -1,0 -1,0 0,0 1,0 1,0z"/>
   <polygon fill="#0BB2AD" points="2258,2070 2264,2073 "/>
   <path fill="#21D8DE" d="M2420 2141l0 0c0,0 -1,0 -1,0 0,0 1,0 2,0z"/>
   <path fill="#21D8DE" d="M2417 2141c-1,0 -3,0 -4,1 1,0 3,0 4,-1z"/>
   <polygon fill="#21D8DE" points="2264,2073 2399,2139 2399,2139 2399,2139 "/>
   <path fill="#21D8DE" d="M2405 2141c0,0 -1,0 -1,0 0,0 1,0 1,0z"/>
   <path fill="#21D8DE" d="M2410 2142c-1,0 -1,0 -2,0 1,0 1,0 2,0z"/>
  </g>
 </g>
</svg>
