<?xml version="1.0" encoding="UTF-8"?>
<!DOCTYPE svg PUBLIC "-//W3C//DTD SVG 1.1//EN" "http://www.w3.org/Graphics/SVG/1.1/DTD/svg11.dtd">
<!-- Creator: CorelDRAW 2017 -->
<svg xmlns="http://www.w3.org/2000/svg" xml:space="preserve" width="30.0566mm" height="30.0566mm" version="1.1" shape-rendering="geometricPrecision" text-rendering="geometricPrecision" image-rendering="optimizeQuality" fill-rule="evenodd" clip-rule="evenodd"
viewBox="0 0 3006 3006"
 xmlns:xlink="http://www.w3.org/1999/xlink">
 <g id="Camada_x0020_1">
  <metadata id="CorelCorpID_0Corel-Layer"/>
  <g id="_2073566146048">
   <path fill="#F8F7F9" stroke="#F8F7F9" stroke-width="7.62" d="M2963 1503c0,200 -40,390 -113,564 -157,374 -464,668 -846,808 -156,57 -325,88 -501,88 -95,0 -188,-9 -278,-26 -204,-39 -394,-121 -558,-237 -213,-149 -384,-353 -493,-592 -84,-184 -131,-389 -131,-605 0,-71 5,-141 15,-209 42,-289 168,-551 353,-760 267,-301 658,-491 1092,-491 256,0 497,66 706,182 127,70 242,159 342,262 31,32 61,66 89,101 9,11 18,23 27,34 47,62 90,129 127,199 85,160 141,338 161,527 5,51 8,103 8,155z"/>
   <path fill="#F8F7F9" stroke="#F8F7F9" stroke-width="7.62" d="M2611 1151c0,152 -31,296 -86,428 -119,284 -352,507 -643,613 -119,43 -247,67 -380,67 -72,0 -143,-7 -211,-20 -155,-30 -299,-92 -424,-180 -162,-113 -292,-268 -375,-450 -64,-140 -99,-295 -99,-459 0,-612 496,-1109 1109,-1109 612,0 1109,496 1109,1109z"/>
   <path fill="#F8F7F9" stroke="#F8F7F9" stroke-width="7.62" d="M2609 193l0 303c0,40 -32,72 -72,72l-506 0 0 -447 506 0c40,0 72,32 72,72z"/>
   <path fill="#F8F7F9" stroke="#F8F7F9" stroke-width="7.62" d="M2004 2875c-156,57 -325,88 -501,88 -591,0 -1099,-351 -1329,-855l460 -611c84,-111 251,-111 334,0l262 348 775 1030z"/>
   <path fill="#F8F7F9" stroke="#F8F7F9" stroke-width="7.62" d="M2540 289c0,31 -25,56 -56,56l-194 0c-15,0 -29,6 -40,16 -10,10 -16,24 -16,40 0,31 25,56 56,56l67 0c15,0 29,6 40,16 10,10 16,24 16,40 0,31 -25,56 -56,56l-326 0 0 -447 318 0c15,0 29,6 40,16 10,10 16,24 16,40 0,31 25,56 56,56l23 0c31,0 56,25 56,56z"/>
   <path fill="#F8F7F9" stroke="#F8F7F9" stroke-width="7.62" d="M1996 43l0 0c-27,0 -49,22 -49,49l0 1236 98 0 0 -1236c0,-27 -22,-49 -49,-49z"/>
   <path fill="#F8F7F9" stroke="#F8F7F9" stroke-width="7.62" d="M2850 2067c-13,31 -27,61 -42,91 -166,330 -454,589 -804,717 -156,57 -325,88 -501,88 -95,0 -188,-9 -278,-26 -143,-28 -279,-76 -404,-142 -54,-28 -105,-60 -154,-94l1130 -1502c100,-133 300,-133 400,0l654 869z"/>
   <path fill="#F8F7F9" stroke="#F8F7F9" stroke-width="7.62" d="M1996 1098c-38,0 -77,33 -102,100l-669 1739c-204,-39 -394,-121 -558,-237l1130 -1502c50,-67 125,-100 200,-100z"/>
   <path fill="#F8F7F9" stroke="#F8F7F9" stroke-width="7.62" d="M2808 2158c-166,330 -454,589 -804,717 -156,57 -325,88 -501,88 -95,0 -188,-9 -278,-26 -143,-28 -279,-76 -404,-142l742 -736c-115,300 212,378 551,253 312,-115 345,-237 694,-153z"/>
   <path fill="#F8F7F9" stroke="#F8F7F9" stroke-width="7.62" d="M1229 1844c-174,6 -346,109 -456,109 -170,0 -371,-151 -140,-457 84,-111 251,-111 334,0l262 348z"/>
   <path fill="#5897D1" d="M2847 1503c0,184 -37,360 -104,519 -144,344 -427,615 -779,744 -144,53 -299,81 -461,81 -88,0 -173,-8 -256,-24 -188,-36 -362,-112 -514,-218 -196,-137 -354,-325 -454,-545 -77,-170 -120,-358 -120,-557 0,-65 5,-130 14,-193 38,-266 155,-508 325,-700 246,-277 606,-452 1006,-452 236,0 458,61 650,168 117,65 223,146 315,241 29,30 56,61 82,93 8,10 17,21 25,31 44,58 83,119 117,183 78,148 130,312 148,485 5,47 8,94 8,143z"/>
   <path fill="#9FC5E6" d="M2524 1179c0,140 -28,273 -79,394 -109,261 -324,467 -592,565 -109,40 -227,62 -350,62 -67,0 -132,-6 -194,-19 -143,-28 -275,-85 -390,-165 -149,-104 -269,-247 -345,-414 -59,-129 -91,-272 -91,-423 0,-564 457,-1021 1021,-1021 564,0 1021,457 1021,1021z"/>
   <path fill="#FF668C" d="M2521 297l0 279c0,37 -30,66 -66,66l-466 0 0 -412 466 0c37,0 66,30 66,66z"/>
   <path fill="#343A6E" d="M1964 2766c-144,53 -299,81 -461,81 -544,0 -1012,-323 -1224,-788l423 -563c77,-102 231,-102 308,0l241 321 713 949z"/>
   <path fill="#EF487D" d="M2458 385c0,28 -23,51 -51,51l-179 0c-14,0 -27,6 -36,15 -9,9 -15,22 -15,36 0,28 23,51 51,51l62 0c14,0 27,6 36,15 9,9 15,22 15,36 0,28 -23,51 -51,51l-300 0 0 -412 293 0c14,0 27,6 36,15 9,9 15,22 15,36 0,28 23,51 51,51l22 0c28,0 51,23 51,51z"/>
   <path fill="#F9DF73" d="M1957 158l0 0c-25,0 -45,20 -45,45l0 1138 91 0 0 -1138c0,-25 -20,-45 -45,-45z"/>
   <path fill="#484B7F" d="M2743 2022c-12,28 -25,57 -39,84 -153,304 -418,542 -740,660 -144,53 -299,81 -461,81 -88,0 -173,-8 -256,-24 -132,-25 -257,-70 -372,-131 -49,-26 -97,-55 -142,-87l1040 -1383c92,-123 276,-123 368,0l602 801z"/>
   <path fill="#343A6E" d="M1957 1130c-35,0 -71,31 -94,92l-616 1601c-188,-36 -362,-112 -514,-218l1040 -1383c46,-61 115,-92 184,-92z"/>
   <path fill="#343A6E" d="M2704 2106c-153,304 -418,542 -740,660 -144,53 -299,81 -461,81 -88,0 -173,-8 -256,-24 -132,-25 -257,-70 -372,-131l683 -678c-106,276 195,348 508,233 287,-106 318,-218 639,-141z"/>
   <path fill="#484B7F" d="M1251 1817c-160,6 -318,100 -420,100 -156,0 -341,-139 -129,-421 77,-102 231,-102 308,0l241 321z"/>
  </g>
 </g>
</svg>
