<?xml version="1.0" encoding="UTF-8"?>
<!DOCTYPE svg PUBLIC "-//W3C//DTD SVG 1.1//EN" "http://www.w3.org/Graphics/SVG/1.1/DTD/svg11.dtd">
<!-- Creator: CorelDRAW 2017 -->
<svg xmlns="http://www.w3.org/2000/svg" xml:space="preserve" width="35.5598mm" height="37.2532mm" version="1.1" shape-rendering="geometricPrecision" text-rendering="geometricPrecision" image-rendering="optimizeQuality" fill-rule="evenodd" clip-rule="evenodd"
viewBox="0 0 3556 3725"
 xmlns:xlink="http://www.w3.org/1999/xlink">
 <g id="Camada_x0020_1">
  <metadata id="CorelCorpID_0Corel-Layer"/>
  <g id="_2038803903536">
   <circle fill="#F8F7F9" cx="1826" cy="1983" r="1691"/>
   <path fill="#F8F7F9" d="M136 1939c0,15 -1,29 -1,44 0,131 15,259 44,381 315,197 1029,335 1859,335 534,0 1020,-57 1382,-150 63,-177 97,-367 97,-566 0,-80 -6,-158 -17,-235 -413,-202 -888,-283 -1463,-283 -870,0 -1611,262 -1901,475z"/>
   <path fill="#F8F7F9" d="M146 2112c0,14 -1,27 -1,41 7,72 19,142 35,211 315,197 1029,335 1859,335 534,0 1020,-57 1382,-150 63,-177 97,-367 97,-566 0,-40 -2,-80 -4,-119 -396,-140 -691,-191 -1196,-150 -932,75 -1860,186 -2172,399z"/>
   <path fill="#F8F7F9" d="M428 1874c-76,20 -192,58 -293,93 0,5 0,11 0,16 0,242 51,473 143,681 169,15 394,35 428,35 56,0 476,-523 476,-523 -310,-29 -597,-342 -754,-302z"/>
   <path fill="#F8F7F9" d="M3516 2046c-233,-111 -424,-243 -558,-226 -170,20 -722,263 -722,263l736 478 444 0c59,-161 93,-334 99,-514z"/>
   <path fill="#F8F7F9" d="M3419 2228c0,-92 -73,-450 -120,-450 -46,0 -120,358 -120,450 0,82 43,127 99,136l0 113c0,11 9,21 21,21 11,0 21,-9 21,-21l0 -113c56,-9 99,-54 99,-136z"/>
   <path fill="#F8F7F9" d="M3217 2270c0,-64 -51,-314 -84,-314 -32,0 -84,250 -84,314 0,57 30,89 69,95l0 79c0,8 6,14 14,14 8,0 14,-6 14,-14l0 -79c39,-6 69,-38 69,-95z"/>
   <path fill="#F8F7F9" d="M791 2334c0,-64 -51,-314 -84,-314 -32,0 -84,250 -84,314 0,57 30,89 69,95l0 79c0,8 6,14 14,14 8,0 14,-6 14,-14l0 -79c39,-6 69,-38 69,-95z"/>
   <path fill="#F8F7F9" d="M586 2318c0,-48 -38,-236 -63,-236 -24,0 -63,188 -63,236 0,43 22,67 52,71l0 59c0,6 5,11 11,11 6,0 11,-5 11,-11l0 -59c30,-5 52,-28 52,-71z"/>
   <path fill="#F8F7F9" d="M428 2319c0,-61 -49,-300 -80,-300 -31,0 -80,239 -80,300 0,55 29,85 66,91l0 75c0,8 6,14 14,14 8,0 14,-6 14,-14l0 -75c38,-6 66,-36 66,-91z"/>
   <path fill="#F8F7F9" d="M1066 2619c-30,0 -55,-24 -55,-55l0 -855c0,-30 24,-55 55,-55 30,0 55,24 55,55l0 855c0,30 -24,55 -55,55z"/>
   <path fill="#F8F7F9" d="M1579 1904c25,-36 40,-79 40,-127 0,-99 -66,-183 -156,-211 -1,-1 -1,-1 -2,-2 8,-23 13,-47 13,-72 0,-121 -98,-218 -218,-218 -17,0 -34,3 -50,6 -49,-70 -130,-116 -222,-116 -151,0 -273,122 -273,273 0,32 6,62 16,90 -107,54 -180,164 -180,292 0,180 146,326 326,327 46,42 107,68 174,68 50,0 96,-15 136,-39 20,4 41,6 63,6 41,0 81,-8 117,-21 107,15 214,27 221,18 5,-7 -7,-100 -23,-209 8,-21 15,-43 19,-65z"/>
   <path fill="#F8F7F9" d="M1579 1904c25,-36 40,-79 40,-127 0,-99 -66,-183 -156,-211 -1,-1 -1,-1 -2,-2 8,-23 13,-47 13,-72 0,-121 -98,-218 -218,-218 -17,0 -34,3 -50,6 -49,-70 -130,-116 -222,-116 -71,0 -134,28 -183,72 23,-6 46,-10 70,-10 92,0 173,46 222,116 16,-4 33,-6 50,-6 121,0 218,98 218,218 0,25 -5,50 -13,72 1,1 1,1 2,2 90,28 156,112 156,211 0,47 -15,91 -40,127 -4,23 -11,44 -19,65 8,55 15,105 20,143 63,7 111,11 116,5 5,-7 -7,-100 -23,-209 8,-21 15,-43 19,-65z"/>
   <path fill="#F8F7F9" d="M208 2474c210,694 855,1200 1618,1200 763,0 1408,-506 1618,-1200l-3237 0z"/>
   <polygon fill="#F8F7F9" points="1444,1765 1935,1274 2917,2256 2917,2638 1444,2638 "/>
   <rect fill="#F8F7F9" x="1802" y="2619" width="1168" height="55"/>
   <polygon fill="#F8F7F9" points="1772,2638 1117,2638 1117,2201 1444,2038 1772,2201 "/>
   <path fill="#F8F7F9" fill-opacity="0.600000" d="M2238 917c-14,0 -27,3 -40,7 -40,-58 -106,-95 -182,-95 -75,0 -142,38 -182,95 -13,-4 -26,-7 -40,-7 -73,0 -133,60 -133,133l709 0c0,-73 -60,-133 -133,-133z"/>
   <path fill="#F8F7F9" fill-opacity="0.600000" d="M2591 1154c-7,0 -13,1 -19,3 -19,-27 -50,-45 -86,-45 -36,0 -67,18 -86,45 -6,-2 -12,-3 -19,-3 -35,0 -63,28 -63,63l336 0c0,-35 -28,-63 -63,-63z"/>
   <path fill="#F8F7F9" fill-opacity="0.600000" d="M1915 565c-7,0 -13,1 -19,3 -19,-27 -50,-45 -86,-45 -36,0 -67,18 -86,45 -6,-2 -12,-3 -19,-3 -35,0 -63,28 -63,63l336 0c0,-35 -28,-63 -63,-63z"/>
   <path fill="#F8F7F9" d="M3042 1258c-10,0 -20,2 -29,5 -30,-42 -78,-70 -134,-70 -56,0 -105,28 -134,70 -9,-3 -19,-5 -29,-5 -54,0 -98,44 -98,98l523 0c0,-54 -44,-98 -98,-98z"/>
   <path fill="#F8F7F9" d="M1379 877c-12,0 -24,2 -35,6 -36,-51 -95,-85 -162,-85 -67,0 -126,34 -162,85 -11,-4 -23,-6 -35,-6 -65,0 -118,53 -118,118l630 0c0,-65 -53,-118 -118,-118z"/>
   <polygon fill="#F8F7F9" points="2943,2339 1935,1332 1419,1848 1361,1790 1935,1216 3001,2281 "/>
   <polygon fill="#F8F7F9" points="1798,2260 1444,2083 1091,2260 1055,2187 1444,1992 1834,2187 "/>
   <rect fill="#F8F7F9" x="1608" y="1819" width="164" height="218"/>
   <path fill="#F8F7F9" d="M1785 2051l-191 0 0 -245 191 0 0 245zm-164 -27l136 0 0 -191 -136 0 0 191z"/>
   <rect fill="#F8F7F9" x="1608" y="1860" width="164" height="27"/>
   <rect fill="#F8F7F9" x="1881" y="1819" width="164" height="218"/>
   <path fill="#F8F7F9" d="M2058 2051l-191 0 0 -245 191 0 0 245zm-164 -27l136 0 0 -191 -136 0 0 191z"/>
   <rect fill="#F8F7F9" x="1881" y="1860" width="164" height="27"/>
   <rect fill="#F8F7F9" x="2154" y="1819" width="164" height="218"/>
   <path fill="#F8F7F9" d="M2331 2051l-191 0 0 -245 191 0 0 245zm-164 -27l136 0 0 -191 -136 0 0 191z"/>
   <rect fill="#F8F7F9" x="2154" y="1860" width="164" height="27"/>
   <rect fill="#F8F7F9" x="1990" y="2256" width="164" height="218"/>
   <path fill="#F8F7F9" d="M2167 2488l-191 0 0 -245 191 0 0 245zm-164 -27l136 0 0 -191 -136 0 0 191z"/>
   <rect fill="#F8F7F9" x="1990" y="2297" width="164" height="27"/>
   <rect fill="#F8F7F9" x="2263" y="2256" width="164" height="218"/>
   <path fill="#F8F7F9" d="M2440 2488l-191 0 0 -245 191 0 0 245zm-164 -27l136 0 0 -191 -136 0 0 191z"/>
   <rect fill="#F8F7F9" x="2263" y="2297" width="164" height="27"/>
   <rect fill="#F8F7F9" x="2535" y="2256" width="164" height="218"/>
   <path fill="#F8F7F9" d="M2713 2488l-191 0 0 -245 191 0 0 245 0 0zm-164 -27l136 0 0 -191 -136 0 0 191z"/>
   <rect fill="#F8F7F9" x="2535" y="2297" width="164" height="27"/>
   <rect fill="#F8F7F9" x="1226" y="2256" width="164" height="218"/>
   <path fill="#F8F7F9" d="M1404 2488l-191 0 0 -245 191 0 0 245zm-164 -27l136 0 0 -191 -136 0 0 191z"/>
   <rect fill="#F8F7F9" x="1226" y="2297" width="164" height="27"/>
   <rect fill="#F8F7F9" x="1499" y="2256" width="164" height="218"/>
   <path fill="#F8F7F9" d="M1676 2488l-191 0 0 -245 191 0 0 245zm-164 -27l136 0 0 -191 -136 0 0 191z"/>
   <rect fill="#F8F7F9" x="1499" y="2297" width="164" height="27"/>
   <path fill="#F8F7F9" d="M1446 2527c-21,0 -41,4 -60,10 -61,-87 -161,-144 -275,-144 -114,0 -214,57 -275,144 -19,-6 -39,-10 -60,-10 -111,0 -201,90 -201,201l1072 0c0,-111 -90,-201 -201,-201z"/>
   <path fill="#F8F7F9" d="M1317 2527c-21,0 -41,4 -60,10 -49,-70 -124,-119 -210,-136 -87,17 -162,66 -210,136 -19,-6 -39,-10 -60,-10 -111,0 -201,90 -201,201l943 0c0,-111 -90,-201 -201,-201z"/>
   <path fill="#F8F7F9" d="M1436 2727c0,-65 52,-117 117,-117 10,0 19,2 28,4 31,-33 74,-54 122,-54 92,0 167,75 167,167l-434 0z"/>
   <path fill="#F8F7F9" d="M1674 2563c-36,7 -69,25 -93,51 -9,-2 -18,-4 -28,-4 -65,0 -117,52 -117,117l374 0c0,-82 -59,-149 -136,-164z"/>
   <path fill="#F8F7F9" d="M1826 3674c609,0 1141,-322 1439,-805l-2878 0c298,482 830,805 1439,805z"/>
   <path fill="#F8F7F9" d="M2957 3238l-2262 0c299,271 696,436 1131,436 436,0 832,-166 1131,-436z"/>
   <path fill="#F8F7F9" d="M581 2439c-7,0 -13,1 -19,3 -19,-27 -50,-45 -85,-45 -35,0 -66,18 -85,45 -6,-2 -12,-3 -19,-3 -34,0 -62,28 -62,62l332 0c0,-34 -28,-62 -62,-62z"/>
   <path fill="#F8F7F9" d="M2969 2503c0,-44 36,-80 80,-80 7,0 13,1 19,3 21,-22 50,-37 83,-37 63,0 114,51 114,114l-296 0z"/>
   <path fill="#F8F7F9" d="M1323 1071c0,-77 62,-139 139,-139 12,0 23,2 33,4 36,-39 87,-64 145,-64 109,0 198,89 198,198l-515 0z"/>
   <path fill="#F8F7F9" d="M2442 897c0,-47 38,-85 85,-85 7,0 14,1 20,3 22,-24 54,-39 89,-39 67,0 122,55 122,122l-317 0z"/>
   <circle fill="#F8F7F9" cx="1756" cy="3542" r="45"/>
   <circle fill="#F8F7F9" cx="2272" cy="3410" r="45"/>
   <circle fill="#F8F7F9" cx="1066" cy="3105" r="31"/>
   <circle fill="#F8F7F9" cx="1407" cy="2993" r="31"/>
   <circle fill="#F8F7F9" cx="853" cy="3025" r="31"/>
   <circle fill="#F8F7F9" cx="1581" cy="3074" r="31"/>
   <circle fill="#F8F7F9" cx="2240" cy="2993" r="31"/>
   <circle fill="#F8F7F9" cx="2876" cy="3025" r="31"/>
   <circle fill="#F8F7F9" cx="1981" cy="3098" r="31"/>
   <circle fill="#F8F7F9" cx="2649" cy="3098" r="31"/>
   <circle fill="#F8F7F9" cx="1407" cy="3451" r="45"/>
   <circle fill="#F8F7F9" cx="1916" cy="3391" r="45"/>
   <circle fill="#9AF4EF" cx="1826" cy="1983" r="1617"/>
   <path fill="#C5F8F1" d="M211 1941c0,14 -1,28 -1,42 0,125 15,247 42,365 302,188 983,320 1777,320 511,0 975,-54 1322,-143 60,-169 93,-351 93,-541 0,-76 -6,-151 -16,-224 -395,-193 -849,-271 -1399,-271 -831,0 -1540,251 -1818,454z"/>
   <path fill="#DEFBF2" d="M219 2106c0,13 -1,26 -1,39 7,69 18,136 33,202 302,188 983,320 1777,320 511,0 975,-54 1322,-143 60,-169 93,-351 93,-541 0,-38 -1,-76 -4,-114 -378,-134 -661,-182 -1143,-144 -891,71 -1778,178 -2076,381z"/>
   <path fill="#B0EB81" d="M490 1879c-72,19 -184,56 -280,89 0,5 0,10 0,15 0,232 49,452 137,651 162,14 377,33 409,33 53,0 455,-500 455,-500 -296,-28 -571,-327 -721,-288z"/>
   <path fill="#B0EB81" d="M3441 2043c-223,-106 -405,-232 -534,-216 -162,20 -690,251 -690,251l704 457 425 0c56,-154 89,-319 95,-491z"/>
   <path fill="#94D75B" d="M3349 2217c0,-88 -70,-430 -114,-430 -44,0 -114,342 -114,430 0,78 41,122 95,130l0 108c0,11 9,20 20,20 11,0 20,-9 20,-20l0 -108c54,-8 95,-52 95,-130z"/>
   <path fill="#94D75B" d="M3156 2257c0,-61 -49,-301 -80,-301 -31,0 -80,239 -80,301 0,55 29,85 66,91l0 75c0,8 6,14 14,14 8,0 14,-6 14,-14l0 -75c38,-6 66,-36 66,-91z"/>
   <path fill="#94D75B" d="M836 2318c0,-61 -49,-301 -80,-301 -31,0 -80,239 -80,301 0,55 29,85 66,91l0 75c0,8 6,14 14,14 8,0 14,-6 14,-14l0 -75c38,-6 66,-36 66,-91z"/>
   <path fill="#94D75B" d="M641 2303c0,-46 -37,-226 -60,-226 -23,0 -60,180 -60,226 0,41 21,64 50,68l0 56c0,6 5,10 10,10 6,0 10,-5 10,-10l0 -56c28,-4 50,-27 50,-68z"/>
   <path fill="#94D75B" d="M490 2305c0,-59 -47,-287 -76,-287 -30,0 -76,228 -76,287 0,52 27,81 63,87l0 72c0,7 6,13 13,13 7,0 13,-6 13,-13l0 -72c36,-6 63,-34 63,-87z"/>
   <path fill="#674447" d="M1099 2591c-29,0 -52,-23 -52,-52l0 -817c0,-29 23,-52 52,-52 29,0 52,23 52,52l0 817c0,29 -23,52 -52,52z"/>
   <path fill="#43AB5F" d="M1590 1908c24,-34 38,-76 38,-121 0,-95 -63,-175 -149,-202 -1,-1 -1,-1 -2,-2 8,-22 13,-45 13,-69 0,-115 -93,-209 -209,-209 -17,0 -33,2 -48,6 -47,-67 -125,-110 -213,-110 -144,0 -261,117 -261,261 0,30 6,59 16,86 -102,52 -172,157 -172,279 0,172 139,312 311,313 44,40 102,65 166,65 48,0 92,-14 130,-38 19,4 39,6 60,6 40,0 77,-7 112,-20 102,14 205,26 211,17 5,-7 -6,-96 -22,-200 8,-20 14,-41 18,-62z"/>
   <path fill="#71BE63" d="M1590 1908c24,-34 38,-76 38,-121 0,-95 -63,-175 -149,-202 -1,-1 -1,-1 -2,-2 8,-22 13,-45 13,-69 0,-115 -93,-209 -209,-209 -17,0 -33,2 -48,6 -47,-67 -125,-110 -213,-110 -68,0 -129,26 -175,69 22,-6 44,-10 67,-10 88,0 165,44 213,110 16,-4 32,-6 48,-6 115,0 209,93 209,209 0,24 -5,47 -13,69 1,1 1,1 2,2 86,27 149,107 149,202 0,45 -14,87 -38,121 -4,22 -10,42 -18,62 8,52 15,101 19,137 60,7 107,10 111,5 5,-7 -6,-96 -22,-200 8,-20 14,-41 18,-62z"/>
   <path fill="#94D75B" d="M279 2452c201,664 818,1147 1547,1147 730,0 1346,-483 1547,-1147l-3094 0z"/>
   <polygon fill="#DE7E68" points="1461,1774 1931,1305 2869,2244 2869,2609 1461,2609 "/>
   <rect fill="#99645F" x="1803" y="2591" width="1116" height="53"/>
   <polygon fill="#B66E6E" points="1774,2609 1148,2609 1148,2192 1461,2035 1774,2192 "/>
   <path fill="white" fill-opacity="0.600000" d="M2220 964c-13,0 -26,3 -38,6 -38,-55 -102,-91 -174,-91 -72,0 -136,36 -174,91 -12,-4 -25,-6 -38,-6 -70,0 -127,57 -127,127l678 0c0,-70 -57,-127 -127,-127z"/>
   <path fill="white" fill-opacity="0.600000" d="M2557 1191c-6,0 -12,1 -18,3 -18,-26 -48,-43 -82,-43 -34,0 -64,17 -82,43 -6,-2 -12,-3 -18,-3 -33,0 -60,27 -60,60l322 0c0,-33 -27,-60 -60,-60z"/>
   <path fill="white" fill-opacity="0.600000" d="M1912 628c-6,0 -12,1 -18,3 -18,-26 -48,-43 -82,-43 -34,0 -64,17 -82,43 -6,-2 -12,-3 -18,-3 -33,0 -60,27 -60,60l322 0c0,-33 -27,-60 -60,-60z"/>
   <path fill="white" d="M2989 1289c-10,0 -19,2 -28,5 -28,-41 -75,-67 -128,-67 -53,0 -100,27 -128,67 -9,-3 -18,-5 -28,-5 -52,0 -94,42 -94,94l500 0c0,-52 -42,-94 -94,-94z"/>
   <path fill="white" d="M1399 926c-12,0 -23,2 -34,6 -34,-49 -90,-81 -154,-81 -64,0 -120,32 -154,81 -11,-3 -22,-6 -34,-6 -62,0 -113,51 -113,113l602 0c0,-62 -51,-113 -113,-113z"/>
   <polygon fill="#99645F" points="2894,2324 1931,1360 1437,1854 1381,1799 1931,1250 2949,2268 "/>
   <polygon fill="#99645F" points="1799,2248 1461,2079 1123,2248 1088,2178 1461,1991 1834,2178 "/>
   <rect fill="#63A0B5" x="1618" y="1827" width="156" height="209"/>
   <path fill="#556483" d="M1787 2048l-183 0 0 -235 183 0 0 235zm-156 -26l130 0 0 -183 -130 0 0 183z"/>
   <rect fill="#556483" x="1618" y="1866" width="156" height="26"/>
   <rect fill="#63A0B5" x="1878" y="1827" width="156" height="209"/>
   <path fill="#556483" d="M2048 2048l-183 0 0 -235 183 0 0 235zm-156 -26l130 0 0 -183 -130 0 0 183z"/>
   <rect fill="#556483" x="1878" y="1866" width="156" height="26"/>
   <rect fill="#63A0B5" x="2139" y="1827" width="156" height="209"/>
   <path fill="#556483" d="M2309 2048l-183 0 0 -235 183 0 0 235zm-156 -26l130 0 0 -183 -130 0 0 183z"/>
   <rect fill="#556483" x="2139" y="1866" width="156" height="26"/>
   <rect fill="#63A0B5" x="1983" y="2244" width="156" height="209"/>
   <path fill="#556483" d="M2152 2465l-183 0 0 -235 183 0 0 235zm-156 -26l130 0 0 -183 -130 0 0 183z"/>
   <rect fill="#556483" x="1983" y="2283" width="156" height="26"/>
   <rect fill="#63A0B5" x="2243" y="2244" width="156" height="209"/>
   <path fill="#556483" d="M2413 2465l-183 0 0 -235 183 0 0 235zm-156 -26l130 0 0 -183 -130 0 0 183z"/>
   <rect fill="#556483" x="2243" y="2283" width="156" height="26"/>
   <rect fill="#63A0B5" x="2504" y="2244" width="156" height="209"/>
   <path fill="#556483" d="M2674 2465l-183 0 0 -235 183 0 0 235 0 0zm-156 -26l130 0 0 -183 -130 0 0 183z"/>
   <rect fill="#556483" x="2504" y="2283" width="156" height="26"/>
   <rect fill="#63A0B5" x="1253" y="2244" width="156" height="209"/>
   <path fill="#556483" d="M1422 2465l-183 0 0 -235 183 0 0 235zm-156 -26l130 0 0 -183 -130 0 0 183z"/>
   <rect fill="#556483" x="1253" y="2283" width="156" height="26"/>
   <rect fill="#63A0B5" x="1513" y="2244" width="156" height="209"/>
   <path fill="#556483" d="M1683 2465l-183 0 0 -235 183 0 0 235zm-156 -26l130 0 0 -183 -130 0 0 183z"/>
   <rect fill="#556483" x="1513" y="2283" width="156" height="26"/>
   <path fill="#71BE63" d="M1463 2503c-20,0 -39,4 -58,10 -58,-83 -154,-138 -263,-138 -109,0 -205,55 -263,138 -18,-6 -37,-10 -57,-10 -106,0 -192,86 -192,192l1025 0c0,-106 -86,-192 -192,-192z"/>
   <path fill="#43AB5F" d="M1340 2503c-20,0 -39,4 -58,10 -47,-67 -118,-114 -201,-130 -83,16 -155,63 -201,130 -18,-6 -37,-10 -57,-10 -106,0 -192,86 -192,192l902 0c0,-106 -86,-192 -192,-192z"/>
   <path fill="#71BE63" d="M1454 2694c0,-62 50,-112 112,-112 9,0 18,1 27,4 29,-31 71,-52 117,-52 88,0 160,71 160,160l-415 0z"/>
   <path fill="#43AB5F" d="M1681 2537c-35,6 -66,24 -89,49 -9,-2 -18,-4 -27,-4 -62,0 -112,50 -112,112l358 0c0,-78 -56,-143 -130,-157z"/>
   <path fill="#71BE63" d="M1826 3600c582,0 1091,-308 1376,-769l-2751 0c285,461 794,769 1376,769z"/>
   <path fill="#43AB5F" d="M2908 3182l-2163 0c286,259 665,417 1082,417 416,0 795,-158 1082,-417z"/>
   <path fill="#94D75B" d="M636 2419c-6,0 -12,1 -18,3 -18,-26 -48,-43 -81,-43 -34,0 -63,17 -81,43 -6,-2 -12,-3 -18,-3 -33,0 -60,27 -60,60l317 0c0,-33 -27,-60 -60,-60z"/>
   <path fill="#94D75B" d="M2919 2480c0,-42 34,-76 76,-76 6,0 12,1 18,2 20,-21 48,-35 80,-35 60,0 109,49 109,109l-283 0z"/>
   <path fill="white" d="M1345 1111c0,-73 59,-133 133,-133 11,0 22,2 32,4 35,-37 84,-61 139,-61 105,0 189,85 189,189l-492 0z"/>
   <path fill="white" d="M2415 945c0,-45 36,-81 81,-81 7,0 13,1 20,3 21,-23 51,-38 85,-38 64,0 116,52 116,116l-303 0z"/>
   <circle fill="#94D75B" cx="1759" cy="3474" r="43"/>
   <circle fill="#94D75B" cx="2252" cy="3348" r="43"/>
   <circle fill="#B0EB81" cx="1099" cy="3056" r="30"/>
   <circle fill="#94D75B" cx="1426" cy="2949" r="30"/>
   <circle fill="#94D75B" cx="896" cy="2979" r="30"/>
   <circle fill="#B0EB81" cx="1592" cy="3026" r="30"/>
   <circle fill="#B0EB81" cx="2222" cy="2949" r="30"/>
   <circle fill="#B0EB81" cx="2829" cy="2979" r="30"/>
   <circle fill="#94D75B" cx="1974" cy="3049" r="30"/>
   <circle fill="#94D75B" cx="2613" cy="3049" r="30"/>
   <circle fill="#71BE63" cx="1426" cy="3387" r="43"/>
   <circle fill="#71BE63" cx="1912" cy="3329" r="43"/>
   <path fill="#FAF9FC" d="M429 175c34,-6 89,-34 161,-58 72,-24 161,-44 236,-55 75,-11 136,-13 199,-7 62,6 126,19 182,34 56,15 106,31 144,52 39,21 66,47 89,78 23,32 40,69 53,108 13,39 21,79 18,111 -3,31 -17,54 -37,80 -20,27 -46,57 -76,86 -30,28 -64,54 -91,76 -27,23 -46,42 -58,69 -12,27 -17,61 -24,97 -7,36 -16,73 -39,103 -23,30 -61,53 -99,67 -38,13 -77,16 -119,21 -43,5 -89,11 -130,18 -41,7 -77,14 -113,14 -36,-1 -72,-9 -92,-26 -20,-18 -23,-44 -27,-67 -4,-23 -9,-43 -19,-57 -10,-15 -26,-24 -44,-17 -18,8 -37,32 -56,52 -19,20 -38,34 -67,42 -30,8 -71,9 -112,7 -42,-2 -84,-8 -111,-23 -27,-15 -39,-38 -37,-66 2,-28 16,-62 29,-90 12,-28 22,-52 26,-70 4,-18 1,-30 -5,-42 -6,-12 -15,-22 -32,-33 -17,-10 -41,-20 -56,-40 -15,-20 -20,-52 -18,-72 3,-21 13,-31 31,-42 17,-12 41,-25 40,-48 -1,-22 -26,-54 -49,-84 -23,-30 -45,-60 -61,-83 -16,-23 -27,-38 -26,-53 1,-15 15,-30 35,-43 20,-13 47,-26 74,-34 27,-8 55,-12 79,-17 24,-5 44,-12 67,-15 23,-2 49,0 68,9 19,9 32,24 66,17z"/>
   <path fill="#FEB756" d="M730 963l-63 13c-9,2 -17,-4 -19,-13l-11 -56c-2,-9 4,-17 13,-19l63 -13 18 88z"/>
   <path fill="#57555C" d="M1170 711l-8 187c-2,23 -11,48 -35,53l-352 72c-24,5 -48,-11 -53,-35l-38 -188 487 -90z"/>
   <path fill="#4B494F" d="M1117 721l-8 187c-2,23 -11,48 -35,53l53 -11c24,-5 33,-30 35,-53l8 -187 -53 11 0 0z"/>
   <circle fill="#C0E3F0" transform="matrix(0.203266 -0.0414463 0.0414463 0.203266 796.279 903.809)" r="102"/>
   <circle fill="#C0E3F0" transform="matrix(0.203266 -0.0414463 0.0414463 0.203266 884.384 885.844)" r="102"/>
   <circle fill="#C0E3F0" transform="matrix(0.203266 -0.0414463 0.0414463 0.203266 972.49 867.879)" r="102"/>
   <path fill="#C0E3F0" d="M1166 808l-110 22c-11,2 -18,13 -16,24 2,11 13,18 24,16l100 -20 2 -42z"/>
   <polygon fill="#A3CFE3" points="1111,860 1164,850 1166,812 1166,808 1113,818 "/>
   <path fill="#FEB756" d="M502 809l-63 115c-3,5 -7,8 -13,8l-173 16c-11,1 -19,-9 -17,-19l44 -242 -44 -218 -135 -206c-6,-9 -2,-21 9,-24l165 -53c5,-2 11,-1 15,3l103 81 110 540 0 0 0 0z"/>
   <path fill="#FA8043" d="M289 188c-4,-3 -10,-4 -15,-3l-39 13c0,0 1,1 1,1l130 104 99 486 -79 146c0,0 -1,1 -1,1l41 -4c5,0 10,-4 13,-8l63 -115 -110 -540 -103 -81z"/>
   <path fill="#FA8043" d="M162 227l114 177c5,7 13,11 21,9 2,0 5,-1 7,-3 9,-6 12,-19 6,-28l-111 -172 -39 13c1,2 1,3 2,5z"/>
   <path fill="#FA8043" d="M348 940l37 -215c2,-11 -6,-22 -17,-24 -11,-2 -22,6 -24,17l-38 220c0,2 0,4 0,5l41 -4z"/>
   <path fill="#4DBBEB" d="M240 627c73,166 360,248 675,184 341,-69 585,-284 545,-478 -40,-195 -348,-296 -689,-227 -315,64 -547,252 -549,433l18 88 0 0z"/>
   <path fill="#38A1D9" d="M771 106c-9,2 -18,4 -27,6 330,-59 624,42 662,232 39,190 -192,398 -519,473 9,-2 18,-3 27,-5 341,-69 585,-284 545,-478 -40,-195 -348,-296 -689,-227z"/>
   <path fill="#E4F1FB" d="M255 624c84,62 337,69 624,10 341,-69 601,-205 581,-302 -20,-97 -312,-120 -653,-50 -287,59 -517,164 -570,254l18 88z"/>
   <path fill="#FEB756" d="M456 583c24,-5 40,-29 35,-53 -5,-24 -29,-40 -53,-35l-264 54c-24,5 -40,29 -35,53 5,24 29,40 53,35l264 -54z"/>
   <path fill="#FA8043" d="M438 495l-53 11c24,-5 48,11 53,35 5,24 -11,48 -35,53l53 -11c24,-5 40,-29 35,-53 -5,-24 -29,-40 -53,-35z"/>
   <path fill="#C9E3F7" d="M1460 333c-6,-29 -37,-52 -86,-67 16,24 28,50 33,78 6,28 6,57 0,85 40,-33 59,-66 53,-96z"/>
  </g>
 </g>
</svg>
