<?xml version="1.0" encoding="UTF-8"?>
<!DOCTYPE svg PUBLIC "-//W3C//DTD SVG 1.1//EN" "http://www.w3.org/Graphics/SVG/1.1/DTD/svg11.dtd">
<!-- Creator: CorelDRAW 2017 -->
<svg xmlns="http://www.w3.org/2000/svg" xml:space="preserve" width="17.7798mm" height="7.6198mm" version="1.1" shape-rendering="geometricPrecision" text-rendering="geometricPrecision" image-rendering="optimizeQuality" fill-rule="evenodd" clip-rule="evenodd"
viewBox="0 0 1778 762"
 xmlns:xlink="http://www.w3.org/1999/xlink">
 <g id="Camada_x0020_1">
  <metadata id="CorelCorpID_0Corel-Layer"/>
  <g id="_2073682866928">
   <path fill="#904AAB" fill-rule="nonzero" d="M772 44c2,-4 6,-7 11,-8 5,-2 11,-2 19,-2 8,0 14,1 18,2 4,1 8,3 10,5 2,2 4,4 6,8 1,4 2,11 2,20l0 218c0,6 0,11 -1,14 0,3 -2,7 -4,10 -4,7 -14,11 -31,11 -18,0 -29,-5 -32,-15 -2,-4 -2,-11 -2,-20l0 -80 -104 0 0 80c0,6 0,11 -1,14 0,3 -2,7 -4,10 -4,7 -14,11 -31,11 -18,0 -29,-5 -32,-15 -2,-4 -2,-11 -2,-20l0 -218c0,-6 0,-11 1,-14 0,-3 2,-6 4,-10 4,-7 14,-11 31,-11 18,0 29,5 33,15 1,4 2,11 2,20l0 80 104 0 0 -81c0,-6 0,-11 1,-14 0,-3 2,-6 4,-10zm91 174c0,-31 11,-57 33,-78 22,-20 47,-31 76,-31 28,0 53,10 75,31 22,20 33,46 33,78 0,22 -6,41 -17,58 -11,17 -25,29 -41,37 -16,8 -33,12 -50,12 -17,0 -34,-4 -50,-13 -16,-9 -30,-21 -41,-38 -11,-17 -17,-35 -17,-56zm82 28c8,6 17,10 26,10 9,0 17,-3 26,-10 9,-7 13,-16 13,-29 0,-13 -4,-22 -12,-29 -8,-6 -17,-9 -26,-9 -9,0 -18,3 -26,10 -8,7 -12,16 -12,29 0,13 4,22 13,29zm252 75c-27,0 -48,-10 -66,-30 -17,-20 -26,-45 -26,-73l0 -69c0,-6 0,-11 1,-14 0,-3 2,-6 3,-10 4,-7 14,-11 31,-11 18,0 29,5 32,15 2,4 2,11 2,20l0 69c0,11 3,19 9,25 6,6 14,9 25,9 10,0 19,-3 25,-9 6,-6 10,-15 10,-25l0 -70c0,-6 0,-11 1,-14 0,-3 2,-6 4,-10 3,-7 14,-10 30,-10 17,0 27,4 30,11 2,4 3,7 3,10 0,3 1,8 1,14l0 139c0,6 0,10 -1,13 0,3 -2,6 -4,10 -4,7 -14,10 -30,10 -16,0 -26,-3 -30,-9 -3,-4 -4,-10 -4,-16 -1,2 -3,4 -7,8 -4,3 -7,6 -11,9 -9,6 -19,9 -29,9zm148 -18c-5,-3 -7,-8 -7,-15 0,-7 5,-17 15,-31 3,-4 8,-7 14,-7 6,0 15,3 26,10 11,6 21,10 30,10 16,0 24,-3 24,-9 0,-5 -9,-9 -26,-11 -17,-2 -33,-9 -49,-19 -8,-5 -14,-12 -19,-22 -5,-10 -7,-22 -7,-36 0,-41 28,-62 85,-62 19,0 38,4 57,13 9,4 14,9 14,16 0,6 -3,14 -9,23 -6,9 -12,14 -18,14 -3,0 -9,-2 -18,-6 -9,-4 -18,-6 -28,-6 -15,0 -23,3 -23,9 0,8 9,13 27,15 17,2 34,7 50,15 8,4 14,10 19,19 5,9 8,20 8,34 0,14 -3,25 -8,35 -5,10 -12,17 -21,21 -17,8 -38,12 -63,12 -25,0 -50,-7 -73,-22zm391 -110c0,16 -4,28 -12,36 -8,8 -17,12 -27,12l-93 0c0,7 4,14 13,18 9,5 17,7 26,7 15,0 27,-2 36,-5l4 -2c6,-3 12,-4 16,-4 8,0 16,6 22,18 3,7 5,13 5,18 0,23 -28,35 -84,35 -19,0 -37,-3 -52,-10 -15,-7 -27,-16 -35,-27 -17,-21 -25,-45 -25,-71 0,-33 11,-60 32,-79 21,-20 48,-30 80,-30 36,0 63,13 80,39 9,14 13,29 13,45zm-83 12c10,0 15,-4 15,-13 0,-6 -2,-11 -7,-15 -5,-4 -11,-6 -20,-6 -9,0 -17,3 -25,10 -8,7 -13,14 -13,22l50 0z"/>
   <path fill="#3CBC80" fill-rule="nonzero" d="M166 612c6,-18 11,-35 17,-51 5,-16 10,-31 14,-45 4,-14 7,-26 10,-37 2,-11 4,-19 4,-25 2,-6 4,-11 8,-14 4,-4 8,-5 14,-5 3,0 6,1 8,2 2,1 4,3 5,6 1,2 2,5 3,8 1,3 1,6 1,9 0,2 0,4 0,6 0,2 -1,4 -1,5 -3,12 -6,24 -11,37 -4,13 -8,25 -13,38 -4,13 -9,26 -13,39 -4,13 -8,26 -11,38l-3 13c-2,7 -3,13 -5,19 -1,6 -2,11 -2,15 0,2 0,4 1,5 1,1 2,2 4,2 5,0 11,-1 18,-3 7,-2 14,-4 22,-6 8,-2 15,-5 23,-8 7,-3 14,-6 21,-9 3,-1 6,-3 9,-4 2,-1 5,-2 9,-4 4,-1 8,-3 14,-6 6,-2 14,-6 24,-10 2,-1 3,-1 5,-2 1,0 3,-1 4,-1 2,0 4,0 5,1 1,1 3,2 3,3 1,1 1,3 2,4 0,2 1,3 1,5 0,3 0,5 -1,7 0,2 -1,4 -1,5 -2,2 -4,5 -6,7 -2,2 -5,4 -8,5 -3,1 -5,3 -8,4 -3,1 -5,2 -6,2 -2,1 -5,2 -8,3 -3,1 -7,3 -11,4 -4,2 -8,3 -12,5 -4,2 -8,3 -12,5 -4,1 -7,3 -10,4 -3,1 -5,2 -6,2 -6,2 -12,4 -18,7 -7,3 -13,5 -20,7 -7,2 -13,4 -19,6 -6,2 -11,2 -15,2 -5,0 -9,0 -11,-1 -3,-1 -5,-2 -7,-3 -2,-1 -4,-3 -7,-5 -2,-2 -5,-4 -9,-6 -3,-2 -6,-5 -7,-8 -1,-4 -2,-7 -2,-12 0,-2 0,-4 0,-7 0,-3 1,-6 1,-8 1,-3 1,-6 2,-9 1,-3 1,-5 2,-8l11 -33zm212 64c2,-7 4,-16 7,-26 3,-10 6,-20 9,-31 3,-11 6,-22 9,-34 3,-12 6,-23 9,-34 0,0 1,-1 1,-3 1,-1 2,-2 3,-4 1,-1 3,-2 5,-3 2,-1 5,-1 8,-1 2,0 4,0 6,1 2,0 4,1 6,2 2,1 3,2 4,4 1,1 1,3 1,5 0,0 0,1 0,1 0,0 0,1 0,1l-5 20c-6,23 -12,46 -18,69 -6,23 -12,46 -18,69 0,1 -1,2 -1,3 0,1 -1,2 -2,3 -1,1 -2,2 -3,3 -1,1 -3,1 -5,1 -3,0 -6,-1 -9,-2 -3,-1 -5,-3 -6,-5 -2,-2 -3,-4 -4,-7 -1,-2 -1,-5 -1,-7 0,-1 0,-1 0,-2 0,-1 0,-1 0,-2l6 -23zm50 -199c1,-3 2,-6 3,-10 2,-4 5,-7 9,-10 2,-1 5,-2 7,-3 3,-1 5,-1 6,-1 1,0 3,0 4,1 1,1 2,2 4,3 1,1 3,3 4,4 3,0 5,1 6,3 1,2 1,5 1,7 0,2 0,4 -1,6 0,2 -1,3 -1,4 -1,3 -2,5 -4,7 -2,2 -5,4 -8,6 -3,2 -6,3 -9,4 -3,1 -6,1 -8,1 -3,0 -5,0 -7,-2 -2,-1 -4,-3 -6,-7 -1,-2 -2,-3 -2,-4 0,-1 0,-2 0,-3 0,-1 0,-3 0,-4 0,-1 0,-2 1,-3zm86 252c-3,0 -6,-1 -9,-2 -2,-1 -5,-3 -6,-5 -2,-2 -3,-5 -4,-7 -1,-3 -1,-6 -1,-9 0,-2 0,-5 1,-7 1,-3 1,-6 2,-10 0,-2 1,-4 2,-7 1,-3 2,-7 2,-11 1,-4 2,-9 2,-13 1,-5 2,-9 2,-14 1,-5 1,-9 2,-13 0,-4 1,-7 1,-10 0,-2 0,-3 0,-3 0,-2 -2,-3 -4,-4 -2,-1 -5,-1 -8,-2 -3,-1 -6,-2 -8,-4 -2,-2 -4,-5 -4,-9 0,-3 1,-7 2,-10 2,-3 4,-5 6,-7 3,-1 6,-2 10,-2 4,0 7,-1 11,-1 2,0 4,-1 4,-4 1,-2 2,-4 2,-6 2,-6 3,-12 5,-19 2,-7 4,-14 6,-21 2,-7 5,-14 8,-21 3,-7 6,-13 10,-19 6,-8 12,-15 19,-22 7,-7 14,-13 21,-18 8,-5 15,-9 24,-12 8,-3 17,-4 27,-4 11,0 21,2 28,6 7,4 13,10 18,17 1,2 2,4 2,6 0,2 1,4 1,6 0,3 -1,7 -1,10 -1,3 -2,6 -4,8 -2,2 -4,4 -6,5 -2,1 -5,2 -7,2 -3,0 -6,-1 -8,-2 -2,-1 -3,-3 -5,-5 -1,-2 -2,-4 -3,-7 -1,-2 -2,-5 -2,-7 -1,-2 -2,-4 -3,-5 -1,-1 -3,-2 -6,-2 -3,0 -6,0 -9,1 -3,1 -6,2 -9,3 -8,4 -15,9 -22,14 -7,5 -13,12 -19,19 -6,8 -11,17 -16,29 -5,11 -9,25 -13,42 0,0 0,1 0,1 0,0 0,1 0,1 0,0 0,0 2,0 4,0 8,0 11,-1 3,0 7,-1 10,-2 3,-1 7,-1 11,-2 4,0 7,-1 11,-1 3,0 6,0 8,0 3,0 5,1 7,2 2,1 3,2 4,4 1,2 2,4 2,6 0,2 0,3 -1,6 0,2 -1,4 -2,7 -1,2 -2,4 -4,6 -1,2 -3,3 -5,3 -4,1 -8,1 -12,2 -4,0 -9,1 -13,2 -5,1 -10,1 -16,2 -6,1 -12,3 -20,5 -2,9 -4,17 -5,26 -1,9 -2,17 -3,25 -1,8 -2,17 -3,26 -1,8 -3,17 -5,26 0,2 -1,3 -2,5 -1,2 -2,3 -3,5 -1,1 -3,2 -5,3 -2,1 -4,1 -6,1zm117 -92c0,-6 2,-10 4,-14 3,-4 7,-6 12,-8 1,-3 4,-7 7,-11 3,-5 7,-10 11,-16 4,-6 9,-11 15,-17 6,-6 12,-11 18,-16 7,-5 14,-8 22,-11 8,-3 16,-4 25,-4 7,0 14,1 19,3 6,2 10,4 14,7 4,3 6,7 8,11 2,4 3,9 3,14 0,4 -1,8 -2,12 -2,7 -5,13 -10,19 -5,5 -11,10 -17,14 -7,4 -14,7 -22,10 -8,3 -16,5 -23,7 -8,2 -15,3 -22,4 -7,1 -13,2 -19,2 -1,2 -2,5 -3,9 -1,3 -1,7 -1,10 0,7 3,13 9,17 6,4 14,6 24,6 6,0 12,-1 17,-2 6,-1 11,-3 16,-5 5,-2 10,-4 14,-7 4,-2 8,-5 12,-7 5,-3 9,-6 13,-8 4,-2 8,-3 11,-3 3,0 5,1 6,2 1,2 1,3 1,5 0,1 0,2 0,3 0,1 0,2 0,2 -1,3 -2,7 -4,10 -2,3 -4,6 -7,9 -13,11 -27,18 -41,23 -14,4 -29,7 -45,7 -3,0 -7,0 -11,-1 -4,0 -8,-1 -13,-2 -4,-1 -9,-3 -13,-5 -4,-2 -8,-5 -12,-9 -3,-4 -6,-8 -8,-13 -2,-5 -3,-12 -3,-19 0,-6 1,-13 2,-20 -2,0 -3,-1 -5,-3 -2,-1 -2,-4 -2,-6zm120 -53c0,-1 0,-1 0,-2 0,-1 0,-1 0,-2 0,-3 -1,-6 -4,-8 -3,-2 -6,-3 -9,-3 -6,0 -11,1 -17,4 -5,3 -11,7 -15,11 -5,4 -9,9 -13,14 -4,5 -7,10 -9,14 9,-1 18,-2 25,-4 8,-2 14,-4 20,-7 6,-3 10,-6 14,-9 4,-3 6,-7 7,-10z"/>
   <path fill="#EF7D16" fill-rule="nonzero" d="M349 44c2,4 3,7 4,11 0,3 1,8 1,14l0 218c0,18 -5,29 -15,32 -5,2 -11,2 -19,2 -8,0 -14,-1 -18,-2 -4,-1 -8,-3 -10,-5 -2,-2 -4,-4 -6,-8 -1,-4 -2,-11 -2,-20l0 -132c-7,8 -16,21 -29,39 -13,18 -21,29 -24,33 -3,4 -6,8 -7,9 -1,2 -5,4 -10,7 -5,3 -11,5 -17,5 -6,0 -11,-1 -16,-4 -5,-3 -8,-5 -10,-8l-3 -4c-5,-7 -16,-21 -31,-42 -15,-21 -24,-33 -25,-34l0 133c0,6 0,11 -1,14 0,3 -2,6 -4,10 -4,7 -14,11 -31,11 -16,0 -26,-4 -30,-11 -2,-4 -3,-7 -4,-10 0,-3 -1,-8 -1,-14l0 -218c0,-6 0,-11 1,-14 0,-3 2,-6 4,-10 4,-7 14,-10 31,-10 7,0 13,1 18,3 5,2 8,3 10,5l2 2 89 117c45,-59 74,-98 89,-117 4,-7 15,-11 32,-11 17,0 27,4 31,11zm229 72c15,7 23,15 23,25 0,5 -1,9 -3,13 -2,4 -3,6 -3,7l-103 231c-2,5 -4,9 -5,11 -1,3 -4,5 -7,7 -3,2 -7,4 -12,4 -5,0 -12,-2 -21,-6 -15,-7 -23,-15 -23,-24 0,-6 13,-36 38,-90l-78 -132c-5,-9 -8,-15 -8,-19 0,-8 7,-17 21,-25 9,-5 16,-8 21,-8 5,0 9,1 12,3 3,2 5,4 7,7 1,2 9,14 22,37 13,22 25,43 37,62 1,-4 8,-20 21,-49 13,-28 20,-43 21,-45 1,-2 2,-4 5,-7 3,-4 8,-7 14,-7 6,0 13,2 22,6z"/>
  </g>
 </g>
</svg>
